<?xml version="1.0" encoding="iso-8859-1"?>
<!-- Generator: Adobe Illustrator 19.0.0, SVG Export Plug-In . SVG Version: 6.00 Build 0)  -->
<svg version="1.1" xmlns="http://www.w3.org/2000/svg" xmlns:xlink="http://www.w3.org/1999/xlink" x="0px" y="0px"
	 viewBox="0 0 559 297" style="enable-background:new 0 0 559 297;" xml:space="preserve">
<g id="Top" style="display:none;">
	<g style="display:inline;">
		<g>
			<path style="fill:#757575;" d="M211.013,94.736c2.105-0.034,3.674-2.853,4.706-4.59c1.805-3.039,3.173-5.936,5.278-8.82
				c5.093-6.977,10.288-13.833,15.574-20.666c3.026-3.912,8.162-14.772,13.922-14.4c6.319,0.408,10.482,4.247,15.503,7.45
				c2.638,1.682,7.629,3.583,9.326,6.206c1.748,2.701,2.4,6.468,3.148,9.562c0.574,2.376,0.808,4.966,2.01,7.155
				c1.224,2.23,3.422,2.362,5.822,2.474c4.68,0.219,5.789-0.251,9.16,3.444c2.42,2.652,4.088,5.654,6.277,8.477
				c2.281,2.941,4.775,5.651,7.139,8.507c2.203,2.661,3.762,5.485,6.227,7.985c0.671,0.681,0.766-3.136,0.772-3.425
				c0.026-1.253,0.409-4.96-0.633-5.983c-2.471-2.427-4.052-5.181-6.258-7.781c-2.362-2.783-4.857-5.408-7.129-8.285
				c-3.443-4.359-6.711-12.024-13.049-12.084c-2.895-0.027-6.482,0.806-8.254-1.93c-1.311-2.024-1.301-4.896-1.942-7.174
				c-0.821-2.913-1.527-6.753-3.221-9.317c-1.644-2.488-4.81-3.348-7.275-4.832c-5.138-3.094-9.808-7.45-16.121-7.847
				c-6.346-0.399-9.783,7.249-12.859,11.636c-5.117,7.298-10.85,14.144-15.941,21.468c-2.208,3.176-4.639,6.307-6.293,9.815
				c-1.114,2.361-3.062,7.99-6.004,8.269C210.434,90.094,210.622,94.742,211.013,94.736L211.013,94.736z"/>
		</g>
	</g>
	<g style="display:inline;">
		<g>
			<path style="fill:#757575;" d="M344.675,156.667c1.694,0.906,2.139,2.651,2.931,4.255c0.98,1.986,2.268,3.754,3.254,5.753
				c1.03,2.087,2.137,4.281,3.437,6.213c1.651,2.452,3.968,4.092,5.153,6.917c-0.006-2.476-0.012-4.951-0.018-7.427
				c-0.303,0.492-0.607,0.985-0.911,1.477c-0.587,0.952-0.556,4.16,0.124,5.061c0.326,0.432,0.652,0.863,0.979,1.295
				c0.519,0.686,0.751-2.296,0.755-2.371c0.098-1.523,0.202-3.627-0.407-5.065c-1.023-2.418-2.544-3.879-4.273-5.821
				c-1.917-2.153-3.365-4.826-4.703-7.369c-1.038-1.972-2.354-3.65-3.46-5.565c-0.71-1.231-1.343-3.238-3.008-3.288
				C344.013,150.715,343.913,156.259,344.675,156.667L344.675,156.667z"/>
		</g>
	</g>
	<g style="display:inline;">
		<g>
			<path style="fill:#757575;" d="M174.925,138.268c3.063-6.117,5.749-12.028,7.508-18.667c2.186-8.247,4.868-15.758,8.319-23.533
				c2.675-6.027,5.383-11.978,8.017-17.949c1.083-2.454,2.281-6.925,4.731-8.264c2.791-1.525,6.227-0.287,7.792,2.337
				c-0.068-2.779-0.136-5.558-0.205-8.337c-0.123,0.168-0.245,0.336-0.368,0.504c-0.691,0.947-0.293,3.66-0.248,4.705
				c0.019,0.431,0.64,3.642,0.59,3.699c0.123-0.14,0.246-0.28,0.369-0.419c1.037-1.18,0.756-7.212-0.075-8.495
				c-1.469-2.267-3.822-2.967-6.452-2.278c-3.039,0.797-3.857,2.864-4.905,5.563c-2.473,6.365-5.656,12.32-8.315,18.644
				c-3.128,7.441-6.35,14.568-8.41,22.409c-1.12,4.265-1.922,8.706-3.346,12.882c-1.46,4.283-3.88,8.238-5.282,12.503
				C174.272,134.706,175.117,137.885,174.925,138.268L174.925,138.268z"/>
		</g>
	</g>
	<g style="display:inline;">
		<g>
			<path style="fill:#757575;" d="M125.894,221.885c0.719-1.934,2.357-2.814,2.962-4.838c0.433-1.451,0.397-3.169,0.445-4.661
				c0.134-4.162-0.415-7.596-1.695-11.522c0.122,1.617,0.245,3.234,0.367,4.85c0.078-1.17,4.008-5.032,4.655-5.981
				c0.931-1.366,2.409-2.619,3.09-4.081c0.34-0.729,0.564-7.833-0.325-7.824c-0.184,0.002-0.368,0.004-0.551,0.006
				c-0.541,0.006-0.772,7.375,0.19,7.748c0.186,0.072,0.371,0.144,0.557,0.215c-0.145-2.473-0.29-4.946-0.435-7.419
				c-0.077,0.47-2.209,3.389-2.64,4.066c-0.826,1.297-1.621,2.607-2.572,3.833c-1.601,2.064-2.545,2.85-2.727,5.439
				c-0.124,1.764-0.004,3.455,0.219,5.197c0.232,1.811,1.208,3.936,0.642,5.84c-0.422,1.421-1.992,2.467-2.488,3.953
				C125.115,218.122,126.138,221.227,125.894,221.885L125.894,221.885z"/>
		</g>
	</g>
	<g style="display:inline;">
		<g>
			<path style="fill:#757575;" d="M226.021,184.647c0.216-7.14,4.569-12.563,9.238-17.557c0.704-0.753,0.396-2.96,0.373-3.907
				c-0.011-0.429-0.645-3.795-0.564-3.884c-0.303,0.337-0.607,0.674-0.91,1.011c-0.684,0.759-0.388,2.878-0.365,3.823
				c0.009,0.361,0.565,3.788,0.552,3.8c0.305-0.281,0.609-0.561,0.914-0.842c-0.064-2.597-0.128-5.194-0.191-7.792
				c-2.974,3.418-5.333,6.857-7.49,10.834c-2.017,3.72-2.197,8.058-2.281,12.196C225.277,183.365,225.913,188.235,226.021,184.647
				L226.021,184.647z"/>
		</g>
	</g>
	<g style="display:inline;">
		<g>
			<path style="fill:#757575;" d="M387.151,205.985c-0.103,1.764-0.253,3.901,0.321,5.608c0.425,1.265,1.716,1.997,2.615,2.924
				c2.367,2.44,5.352,4.535,8.235,6.33c-0.058-2.352-0.115-4.705-0.173-7.057c-0.3,0.16-0.601,0.32-0.901,0.481
				c-0.66,0.352-0.458,6.237,0.156,6.373c0.306,0.068,0.612,0.136,0.918,0.204c0.266,0.059,0.488-6.267-0.062-6.934
				c-0.707-0.856-1.591-1.268-2.528-1.839c-1.006-0.612-1.882-1.399-2.851-2.067c-0.976-0.672-1.885-1.292-2.744-2.113
				c-0.649-0.62-2.317-1.616-2.532-2.537c0.082,1.515,0.165,3.031,0.247,4.546c0.01-0.198,0.02-0.395,0.031-0.593
				c0.067-1.295,0.314-3.327-0.246-4.527C387.154,203.752,387.178,205.532,387.151,205.985L387.151,205.985z"/>
		</g>
	</g>
</g>
<g id="IA" style="display:none;">
	<g style="display:inline;">
		<path style="fill:#757575;" d="M80.443,256.634c0.416,0,0.624-0.145,0.624-0.433v-10.896c0-0.288-0.208-0.433-0.624-0.433v-0.432
			h3.984v0.432c-0.417,0-0.624,0.145-0.624,0.433v10.896c0,0.288,0.208,0.433,0.624,0.433v0.432h-3.984V256.634z"/>
		<path style="fill:#757575;" d="M88.627,256.634c0.304,0,0.456-0.145,0.456-0.433v-10.896c0-0.288-0.152-0.433-0.456-0.433v-0.432
			h4.104v0.432c-0.128,0-0.192,0.08-0.192,0.24c0,0.128,0.16,0.352,0.48,0.672l6.888,7.152v-7.632c0-0.288-0.208-0.433-0.624-0.433
			v-0.432h3.624v0.432c-0.304,0-0.456,0.145-0.456,0.433v10.896c0,0.288,0.152,0.433,0.456,0.433v0.432h-3.888v-0.432
			c0.208,0,0.312-0.072,0.312-0.217c0-0.111-0.128-0.296-0.384-0.552l-7.32-7.632v7.968c0,0.288,0.184,0.433,0.552,0.433v0.432
			h-3.552V256.634z"/>
		<path style="fill:#757575;" d="M113.803,256.201c0,0.288,0.176,0.433,0.528,0.433v0.432h-3.696v-0.432
			c0.112,0,0.212-0.036,0.3-0.108s0.132-0.18,0.132-0.324v-9.552h-3.96c-0.144,0-0.285,0.04-0.42,0.12s-0.204,0.231-0.204,0.456
			h-0.432v-3.36h0.432c0,0.225,0.068,0.376,0.204,0.456s0.276,0.12,0.42,0.12h10.656c0.144,0,0.284-0.04,0.42-0.12
			c0.136-0.08,0.204-0.231,0.204-0.456h0.432v3.36h-0.432c0-0.225-0.068-0.376-0.204-0.456c-0.136-0.08-0.276-0.12-0.42-0.12h-3.96
			V256.201z"/>
		<path style="fill:#757575;" d="M133.698,247.033c0-0.176-0.068-0.308-0.204-0.396c-0.136-0.087-0.372-0.132-0.708-0.132h-7.776
			v2.977h4.704c0.32,0,0.568-0.044,0.744-0.132c0.176-0.088,0.264-0.316,0.264-0.685h0.432v3.744h-0.432
			c0-0.368-0.088-0.604-0.264-0.708c-0.176-0.104-0.424-0.156-0.744-0.156h-4.704v3.312h8.016c0.24,0,0.436-0.056,0.588-0.168
			c0.152-0.111,0.228-0.264,0.228-0.456h0.432v3.288h-0.432c0-0.24-0.076-0.376-0.228-0.408c-0.152-0.032-0.348-0.048-0.588-0.048
			h-11.184v-0.432c0.112,0,0.212-0.036,0.3-0.108s0.132-0.18,0.132-0.324v-10.896c0-0.145-0.044-0.253-0.132-0.324
			c-0.088-0.072-0.188-0.108-0.3-0.108v-0.432h10.944c0.336,0,0.572-0.052,0.708-0.156c0.136-0.104,0.204-0.244,0.204-0.42h0.432
			v3.168H133.698z"/>
		<path style="fill:#757575;" d="M149.562,257.521c0-0.24-0.076-0.376-0.228-0.408c-0.152-0.032-0.348-0.048-0.588-0.048h-11.424
			v-0.432c0.48,0,0.72-0.145,0.72-0.433v-10.896c0-0.288-0.24-0.433-0.72-0.433v-0.432h4.128v0.432
			c-0.448,0-0.672,0.145-0.672,0.433v9.552h7.968c0.24,0,0.436-0.056,0.588-0.168c0.152-0.111,0.228-0.264,0.228-0.456h0.432v3.288
			H149.562z"/>
		<path style="fill:#757575;" d="M164.226,257.521c0-0.24-0.076-0.376-0.228-0.408c-0.152-0.032-0.348-0.048-0.588-0.048h-11.424
			v-0.432c0.48,0,0.72-0.145,0.72-0.433v-10.896c0-0.288-0.24-0.433-0.72-0.433v-0.432h4.128v0.432
			c-0.448,0-0.672,0.145-0.672,0.433v9.552h7.968c0.24,0,0.436-0.056,0.588-0.168c0.152-0.111,0.228-0.264,0.228-0.456h0.432v3.288
			H164.226z"/>
		<path style="fill:#757575;" d="M167.106,256.634c0.416,0,0.624-0.145,0.624-0.433v-10.896c0-0.288-0.208-0.433-0.624-0.433v-0.432
			h3.984v0.432c-0.417,0-0.624,0.145-0.624,0.433v10.896c0,0.288,0.208,0.433,0.624,0.433v0.432h-3.984V256.634z"/>
		<path style="fill:#757575;" d="M186.666,248.329l-0.48-0.144c0.032-0.097,0.048-0.192,0.048-0.288c0-0.24-0.148-0.456-0.444-0.648
			c-0.296-0.191-0.672-0.355-1.128-0.492c-0.456-0.136-0.952-0.235-1.488-0.3c-0.536-0.063-1.044-0.096-1.524-0.096
			c-0.592,0-1.18,0.084-1.764,0.252s-1.104,0.428-1.56,0.78c-0.456,0.352-0.825,0.808-1.104,1.367c-0.28,0.561-0.42,1.24-0.42,2.04
			c0,0.784,0.14,1.461,0.42,2.029c0.279,0.567,0.648,1.027,1.104,1.379c0.456,0.353,0.976,0.612,1.56,0.78s1.172,0.252,1.764,0.252
			c0.912,0,1.732-0.075,2.46-0.228s1.348-0.316,1.86-0.492v-2.064h-3.072c-0.224,0-0.392,0.048-0.504,0.145
			c-0.112,0.096-0.184,0.305-0.216,0.624h-0.432v-3.072h0.432c0.032,0.272,0.104,0.444,0.216,0.516
			c0.112,0.072,0.28,0.108,0.504,0.108h6v0.432c-0.32,0.048-0.52,0.104-0.6,0.168c-0.08,0.064-0.12,0.2-0.12,0.408v2.712
			c0,0.16,0.048,0.265,0.144,0.312c0.096,0.048,0.208,0.104,0.336,0.168v0.384c-0.528,0.368-1.084,0.672-1.668,0.912
			s-1.176,0.429-1.776,0.564s-1.2,0.22-1.8,0.252c-0.6,0.031-1.188,0.048-1.764,0.048c-1.12,0-2.14-0.141-3.06-0.42
			c-0.92-0.28-1.708-0.696-2.364-1.248c-0.656-0.553-1.164-1.225-1.524-2.017c-0.36-0.792-0.54-1.692-0.54-2.7s0.18-1.908,0.54-2.7
			c0.36-0.792,0.868-1.468,1.524-2.027c0.656-0.561,1.444-0.988,2.364-1.284s1.94-0.444,3.06-0.444c0.704,0,1.376,0.048,2.016,0.145
			c0.64,0.096,1.208,0.204,1.704,0.324c0.496,0.119,0.908,0.231,1.236,0.336c0.328,0.104,0.532,0.155,0.612,0.155
			c0.144,0,0.256-0.031,0.336-0.096c0.08-0.063,0.16-0.12,0.24-0.168l0.288,0.168L186.666,248.329z"/>
		<path style="fill:#757575;" d="M204.354,247.033c0-0.176-0.068-0.308-0.204-0.396c-0.136-0.087-0.372-0.132-0.708-0.132h-7.776
			v2.977h4.704c0.32,0,0.568-0.044,0.744-0.132c0.176-0.088,0.264-0.316,0.264-0.685h0.432v3.744h-0.432
			c0-0.368-0.088-0.604-0.264-0.708c-0.176-0.104-0.424-0.156-0.744-0.156h-4.704v3.312h8.016c0.24,0,0.436-0.056,0.588-0.168
			c0.152-0.111,0.228-0.264,0.228-0.456h0.432v3.288h-0.432c0-0.24-0.076-0.376-0.228-0.408c-0.152-0.032-0.348-0.048-0.588-0.048
			h-11.184v-0.432c0.112,0,0.212-0.036,0.3-0.108s0.132-0.18,0.132-0.324v-10.896c0-0.145-0.044-0.253-0.132-0.324
			c-0.088-0.072-0.188-0.108-0.3-0.108v-0.432h10.944c0.336,0,0.572-0.052,0.708-0.156c0.136-0.104,0.204-0.244,0.204-0.42h0.432
			v3.168H204.354z"/>
		<path style="fill:#757575;" d="M208.625,256.634c0.304,0,0.456-0.145,0.456-0.433v-10.896c0-0.288-0.152-0.433-0.456-0.433v-0.432
			h4.104v0.432c-0.128,0-0.192,0.08-0.192,0.24c0,0.128,0.16,0.352,0.48,0.672l6.888,7.152v-7.632c0-0.288-0.208-0.433-0.624-0.433
			v-0.432h3.624v0.432c-0.304,0-0.456,0.145-0.456,0.433v10.896c0,0.288,0.152,0.433,0.456,0.433v0.432h-3.888v-0.432
			c0.208,0,0.312-0.072,0.312-0.217c0-0.111-0.128-0.296-0.384-0.552l-7.32-7.632v7.968c0,0.288,0.184,0.433,0.552,0.433v0.432
			h-3.552V256.634z"/>
		<path style="fill:#757575;" d="M233.801,256.201c0,0.288,0.176,0.433,0.528,0.433v0.432h-3.696v-0.432
			c0.112,0,0.212-0.036,0.3-0.108s0.132-0.18,0.132-0.324v-9.552h-3.96c-0.144,0-0.285,0.04-0.42,0.12s-0.204,0.231-0.204,0.456
			h-0.432v-3.36h0.432c0,0.225,0.068,0.376,0.204,0.456s0.276,0.12,0.42,0.12h10.656c0.144,0,0.284-0.04,0.42-0.12
			c0.136-0.08,0.204-0.231,0.204-0.456h0.432v3.36h-0.432c0-0.225-0.068-0.376-0.204-0.456c-0.136-0.08-0.276-0.12-0.42-0.12h-3.96
			V256.201z"/>
		<path style="fill:#757575;" d="M247.601,256.634c0.208-0.032,0.372-0.136,0.492-0.312c0.12-0.176,0.236-0.376,0.348-0.6
			l4.44-9.337c0.111-0.207,0.212-0.399,0.3-0.575s0.132-0.328,0.132-0.456c0-0.16-0.056-0.272-0.168-0.336
			c-0.112-0.064-0.232-0.112-0.36-0.145v-0.432h4.056v0.432c-0.112,0.032-0.225,0.076-0.336,0.132
			c-0.112,0.057-0.168,0.173-0.168,0.349c0,0.128,0.027,0.256,0.084,0.384c0.056,0.128,0.14,0.296,0.252,0.504l4.992,9.769
			c0.08,0.176,0.188,0.304,0.324,0.384c0.136,0.08,0.292,0.16,0.468,0.24v0.432h-4.224v-0.432c0.063,0,0.144-0.024,0.24-0.072
			s0.144-0.12,0.144-0.216c0-0.16-0.064-0.368-0.192-0.624l-0.912-1.776h-5.856l-0.864,1.704c-0.16,0.336-0.24,0.576-0.24,0.72
			c0,0.177,0.152,0.265,0.456,0.265v0.432h-3.408V256.634z M256.649,252.169l-2.016-4.464l-2.256,4.464H256.649z"/>
		<path style="fill:#757575;" d="M273.232,244.441c0.77,0,1.465,0.068,2.088,0.204c0.625,0.136,1.16,0.352,1.609,0.647
			c0.447,0.297,0.791,0.681,1.031,1.152s0.359,1.052,0.359,1.74c0,1.056-0.311,1.863-0.936,2.424
			c-0.623,0.561-1.463,0.936-2.52,1.128l3.191,4.561c0.111,0.16,0.244,0.256,0.396,0.287c0.152,0.033,0.291,0.049,0.42,0.049v0.432
			h-4.488v-0.432c0.145,0,0.268-0.024,0.373-0.072c0.104-0.048,0.154-0.112,0.154-0.192c0-0.079-0.031-0.172-0.096-0.275
			c-0.064-0.104-0.16-0.244-0.287-0.42l-2.641-3.745h-3.432v4.272c0,0.145,0.051,0.252,0.156,0.324
			c0.104,0.072,0.291,0.108,0.564,0.108v0.432h-4.152v-0.432c0.463,0,0.695-0.145,0.695-0.433v-10.896
			c0-0.288-0.232-0.433-0.695-0.433v-0.432H273.232z M272.609,250.058c0.576,0,1.055-0.044,1.439-0.133
			c0.385-0.087,0.688-0.212,0.912-0.372c0.225-0.159,0.385-0.348,0.48-0.563s0.145-0.452,0.145-0.708s-0.049-0.492-0.145-0.708
			s-0.256-0.404-0.48-0.564c-0.225-0.159-0.527-0.283-0.912-0.372c-0.385-0.087-0.863-0.132-1.439-0.132h-4.152v3.553H272.609z"/>
		<path style="fill:#757575;" d="M295.816,255.338c-0.048,0-0.092-0.004-0.132-0.013c-0.04-0.008-0.084-0.012-0.132-0.012
			c-0.096,0-0.324,0.096-0.685,0.288c-0.359,0.191-0.815,0.408-1.367,0.647c-0.553,0.24-1.181,0.448-1.885,0.624
			c-0.704,0.177-1.439,0.265-2.208,0.265c-1.008,0-1.976-0.128-2.903-0.384c-0.929-0.256-1.748-0.652-2.46-1.188
			c-0.713-0.536-1.276-1.204-1.692-2.004s-0.624-1.736-0.624-2.809c0-1.056,0.208-1.987,0.624-2.796
			c0.416-0.808,0.979-1.483,1.692-2.028c0.712-0.543,1.531-0.951,2.46-1.224c0.928-0.271,1.896-0.408,2.903-0.408
			c0.816,0,1.557,0.064,2.221,0.192c0.663,0.128,1.243,0.264,1.739,0.408c0.496,0.144,0.889,0.28,1.177,0.408
			s0.464,0.191,0.527,0.191c0.08,0,0.148-0.04,0.204-0.12s0.1-0.144,0.132-0.191l0.36,0.288l-1.872,2.903l-0.24-0.168
			c0-0.048-0.004-0.096-0.012-0.144s-0.021-0.104-0.036-0.168c-0.032-0.176-0.191-0.356-0.479-0.54s-0.645-0.349-1.068-0.492
			c-0.424-0.145-0.872-0.264-1.344-0.36c-0.473-0.096-0.908-0.144-1.309-0.144c-0.672,0-1.315,0.096-1.932,0.288
			c-0.616,0.191-1.152,0.472-1.608,0.84c-0.455,0.368-0.819,0.82-1.092,1.355c-0.272,0.537-0.408,1.148-0.408,1.837
			c0,0.688,0.136,1.3,0.408,1.836s0.637,0.988,1.092,1.355c0.456,0.368,0.992,0.648,1.608,0.841c0.616,0.191,1.26,0.287,1.932,0.287
			c0.513,0,1.048-0.06,1.608-0.18c0.56-0.12,1.071-0.271,1.536-0.456c0.464-0.184,0.852-0.392,1.164-0.624
			c0.312-0.231,0.468-0.451,0.468-0.66c0-0.111-0.032-0.208-0.096-0.288l0.336-0.191l1.584,2.544L295.816,255.338z"/>
		<path style="fill:#757575;" d="M310.96,245.306c0-0.288-0.177-0.433-0.528-0.433v-0.432h3.696v0.432
			c-0.112,0-0.213,0.036-0.3,0.108c-0.089,0.071-0.133,0.18-0.133,0.324v10.896c0,0.145,0.044,0.252,0.133,0.324
			c0.087,0.072,0.188,0.108,0.3,0.108v0.432h-3.696v-0.432c0.352,0,0.528-0.145,0.528-0.433v-4.512h-7.729v4.512
			c0,0.145,0.044,0.252,0.132,0.324s0.188,0.108,0.301,0.108v0.432h-3.624v-0.432c0.304,0,0.456-0.145,0.456-0.433v-10.896
			c0-0.288-0.152-0.433-0.456-0.433v-0.432h3.624v0.432c-0.112,0-0.213,0.036-0.301,0.108c-0.088,0.071-0.132,0.18-0.132,0.324
			v4.079h7.729V245.306z"/>
		<path style="fill:#757575;" d="M318.424,256.634c0.416,0,0.624-0.145,0.624-0.433v-10.896c0-0.288-0.208-0.433-0.624-0.433v-0.432
			h3.983v0.432c-0.416,0-0.624,0.145-0.624,0.433v10.896c0,0.288,0.208,0.433,0.624,0.433v0.432h-3.983V256.634z"/>
		<path style="fill:#757575;" d="M333.112,256.201c0,0.288,0.176,0.433,0.527,0.433v0.432h-3.696v-0.432
			c0.112,0,0.212-0.036,0.301-0.108c0.088-0.072,0.132-0.18,0.132-0.324v-9.552h-3.96c-0.145,0-0.284,0.04-0.42,0.12
			c-0.137,0.08-0.204,0.231-0.204,0.456h-0.433v-3.36h0.433c0,0.225,0.067,0.376,0.204,0.456c0.136,0.08,0.275,0.12,0.42,0.12
			h10.656c0.144,0,0.283-0.04,0.42-0.12c0.136-0.08,0.204-0.231,0.204-0.456h0.432v3.36h-0.432c0-0.225-0.068-0.376-0.204-0.456
			c-0.137-0.08-0.276-0.12-0.42-0.12h-3.96V256.201z"/>
		<path style="fill:#757575;" d="M353.008,247.033c0-0.176-0.068-0.308-0.204-0.396c-0.136-0.087-0.372-0.132-0.708-0.132h-7.775
			v2.977h4.703c0.32,0,0.568-0.044,0.744-0.132s0.265-0.316,0.265-0.685h0.432v3.744h-0.432c0-0.368-0.089-0.604-0.265-0.708
			c-0.176-0.104-0.424-0.156-0.744-0.156h-4.703v3.312h8.016c0.24,0,0.436-0.056,0.588-0.168c0.152-0.111,0.229-0.264,0.229-0.456
			h0.432v3.288h-0.432c0-0.24-0.076-0.376-0.229-0.408s-0.348-0.048-0.588-0.048h-11.184v-0.432c0.111,0,0.211-0.036,0.3-0.108
			c0.088-0.072,0.132-0.18,0.132-0.324v-10.896c0-0.145-0.044-0.253-0.132-0.324c-0.089-0.072-0.188-0.108-0.3-0.108v-0.432h10.943
			c0.336,0,0.572-0.052,0.708-0.156c0.136-0.104,0.204-0.244,0.204-0.42h0.432v3.168H353.008z"/>
		<path style="fill:#757575;" d="M370.479,255.338c-0.048,0-0.092-0.004-0.132-0.013c-0.04-0.008-0.084-0.012-0.132-0.012
			c-0.096,0-0.324,0.096-0.685,0.288c-0.359,0.191-0.815,0.408-1.367,0.647c-0.553,0.24-1.181,0.448-1.885,0.624
			c-0.704,0.177-1.439,0.265-2.208,0.265c-1.008,0-1.976-0.128-2.903-0.384c-0.929-0.256-1.748-0.652-2.46-1.188
			c-0.713-0.536-1.276-1.204-1.692-2.004s-0.624-1.736-0.624-2.809c0-1.056,0.208-1.987,0.624-2.796
			c0.416-0.808,0.979-1.483,1.692-2.028c0.712-0.543,1.531-0.951,2.46-1.224c0.928-0.271,1.896-0.408,2.903-0.408
			c0.816,0,1.557,0.064,2.221,0.192c0.663,0.128,1.243,0.264,1.739,0.408c0.496,0.144,0.889,0.28,1.177,0.408
			s0.464,0.191,0.527,0.191c0.08,0,0.148-0.04,0.204-0.12s0.1-0.144,0.132-0.191l0.36,0.288l-1.872,2.903l-0.24-0.168
			c0-0.048-0.004-0.096-0.012-0.144s-0.021-0.104-0.036-0.168c-0.032-0.176-0.191-0.356-0.479-0.54s-0.645-0.349-1.068-0.492
			c-0.424-0.145-0.872-0.264-1.344-0.36c-0.473-0.096-0.908-0.144-1.309-0.144c-0.672,0-1.315,0.096-1.932,0.288
			c-0.616,0.191-1.152,0.472-1.608,0.84c-0.455,0.368-0.819,0.82-1.092,1.355c-0.272,0.537-0.408,1.148-0.408,1.837
			c0,0.688,0.136,1.3,0.408,1.836s0.637,0.988,1.092,1.355c0.456,0.368,0.992,0.648,1.608,0.841c0.616,0.191,1.26,0.287,1.932,0.287
			c0.513,0,1.048-0.06,1.608-0.18c0.56-0.12,1.071-0.271,1.536-0.456c0.464-0.184,0.852-0.392,1.164-0.624
			c0.312-0.231,0.468-0.451,0.468-0.66c0-0.111-0.032-0.208-0.096-0.288l0.336-0.191l1.584,2.544L370.479,255.338z"/>
		<path style="fill:#757575;" d="M381.112,256.201c0,0.288,0.176,0.433,0.527,0.433v0.432h-3.696v-0.432
			c0.112,0,0.212-0.036,0.301-0.108c0.088-0.072,0.132-0.18,0.132-0.324v-9.552h-3.96c-0.145,0-0.284,0.04-0.42,0.12
			c-0.137,0.08-0.204,0.231-0.204,0.456h-0.433v-3.36h0.433c0,0.225,0.067,0.376,0.204,0.456c0.136,0.08,0.275,0.12,0.42,0.12
			h10.656c0.144,0,0.283-0.04,0.42-0.12c0.136-0.08,0.204-0.231,0.204-0.456h0.432v3.36h-0.432c0-0.225-0.068-0.376-0.204-0.456
			c-0.137-0.08-0.276-0.12-0.42-0.12h-3.96V256.201z"/>
		<path style="fill:#757575;" d="M392.607,244.873c-0.352,0-0.527,0.145-0.527,0.433v7.199c0,1.009,0.324,1.701,0.972,2.076
			c0.648,0.377,1.596,0.564,2.844,0.564s2.196-0.188,2.845-0.564c0.647-0.375,0.972-1.067,0.972-2.076v-7.199
			c0-0.288-0.24-0.433-0.72-0.433v-0.432h3.84v0.432c-0.384,0-0.576,0.145-0.576,0.433v7.079c0,0.945-0.136,1.725-0.408,2.341
			s-0.68,1.108-1.224,1.476c-0.544,0.368-1.221,0.616-2.028,0.744s-1.74,0.192-2.796,0.192s-1.988-0.064-2.796-0.192
			c-0.809-0.128-1.484-0.376-2.028-0.744c-0.544-0.367-0.952-0.859-1.224-1.476c-0.272-0.616-0.408-1.396-0.408-2.341v-7.079
			c0-0.288-0.224-0.433-0.672-0.433v-0.432h3.936V244.873z"/>
		<path style="fill:#757575;" d="M414.544,244.441c0.769,0,1.464,0.068,2.088,0.204s1.16,0.352,1.608,0.647
			c0.447,0.297,0.792,0.681,1.032,1.152c0.239,0.472,0.359,1.052,0.359,1.74c0,1.056-0.312,1.863-0.936,2.424
			s-1.464,0.936-2.521,1.128l3.192,4.561c0.111,0.16,0.243,0.256,0.396,0.287c0.152,0.033,0.292,0.049,0.42,0.049v0.432h-4.487
			v-0.432c0.144,0,0.268-0.024,0.372-0.072c0.104-0.048,0.155-0.112,0.155-0.192c0-0.079-0.032-0.172-0.096-0.275
			c-0.064-0.104-0.16-0.244-0.288-0.42l-2.64-3.745h-3.433v4.272c0,0.145,0.052,0.252,0.156,0.324s0.292,0.108,0.564,0.108v0.432
			h-4.152v-0.432c0.464,0,0.696-0.145,0.696-0.433v-10.896c0-0.288-0.232-0.433-0.696-0.433v-0.432H414.544z M413.92,250.058
			c0.576,0,1.056-0.044,1.44-0.133c0.384-0.087,0.688-0.212,0.912-0.372c0.224-0.159,0.384-0.348,0.479-0.563
			s0.145-0.452,0.145-0.708s-0.049-0.492-0.145-0.708s-0.256-0.404-0.479-0.564c-0.225-0.159-0.528-0.283-0.912-0.372
			c-0.385-0.087-0.864-0.132-1.44-0.132h-4.152v3.553H413.92z"/>
		<path style="fill:#757575;" d="M435.664,247.033c0-0.176-0.068-0.308-0.204-0.396c-0.136-0.087-0.372-0.132-0.708-0.132h-7.775
			v2.977h4.703c0.32,0,0.568-0.044,0.744-0.132s0.265-0.316,0.265-0.685h0.432v3.744h-0.432c0-0.368-0.089-0.604-0.265-0.708
			c-0.176-0.104-0.424-0.156-0.744-0.156h-4.703v3.312h8.016c0.24,0,0.436-0.056,0.588-0.168c0.152-0.111,0.229-0.264,0.229-0.456
			h0.432v3.288h-0.432c0-0.24-0.076-0.376-0.229-0.408s-0.348-0.048-0.588-0.048h-11.184v-0.432c0.111,0,0.211-0.036,0.3-0.108
			c0.088-0.072,0.132-0.18,0.132-0.324v-10.896c0-0.145-0.044-0.253-0.132-0.324c-0.089-0.072-0.188-0.108-0.3-0.108v-0.432h10.943
			c0.336,0,0.572-0.052,0.708-0.156c0.136-0.104,0.204-0.244,0.204-0.42h0.432v3.168H435.664z"/>
	</g>
</g>
<g id="Line">
	<g>
		<line style="fill:#FFFFFF;" x1="79" y1="229.06" x2="439.903" y2="229.06"/>
		<path style="fill:#FFFFFF;" d="M79,228.66c0,0,22.556-0.41,56.391-1.025c8.459-0.144,17.622-0.3,27.314-0.465
			c9.692-0.137,19.913-0.281,30.486-0.43c21.147-0.281,43.703-0.581,66.259-0.881c11.278-0.183,22.556-0.367,33.658-0.547
			c11.102-0.222,22.028-0.385,32.601-0.42c10.573,0.009,20.794,0.078,30.486,0.298c4.846,0.097,9.56,0.192,14.12,0.284
			c4.56,0.133,8.965,0.262,13.195,0.385c4.229,0.109,8.282,0.27,12.137,0.419c3.855,0.158,7.511,0.265,10.948,0.442
			c3.436,0.162,6.652,0.313,9.626,0.453c2.974,0.164,5.705,0.315,8.172,0.451c4.934,0.284,8.811,0.536,11.454,0.733
			c2.643,0.196,4.053,0.301,4.053,0.301v0.8c0,0-1.41,0.105-4.053,0.301c-2.643,0.197-6.52,0.449-11.454,0.733
			c-2.467,0.136-5.199,0.287-8.172,0.451c-2.974,0.14-6.19,0.292-9.626,0.453c-3.436,0.177-7.093,0.284-10.948,0.442
			c-3.855,0.15-7.908,0.31-12.137,0.419c-4.229,0.124-8.635,0.252-13.195,0.385c-4.56,0.092-9.274,0.186-14.12,0.284
			c-9.692,0.22-19.913,0.289-30.486,0.298c-10.573-0.035-21.499-0.197-32.601-0.42c-11.102-0.181-22.38-0.364-33.658-0.547
			c-22.556-0.3-45.113-0.6-66.259-0.881c-10.573-0.149-20.794-0.293-30.486-0.43c-9.692-0.165-18.856-0.321-27.314-0.465
			C101.556,229.87,79,229.46,79,229.46V228.66z"/>
	</g>
</g>
<g id="Arctiq">
	<g>
		<g>
			<path style="fill:#FFFFFF;" d="M194.068,216.046h-16.484c0-4.004-3.281-16.586-9.844-37.744h-45.079
				c-6.458,20.86-9.688,33.44-9.688,37.744H97.193c0-2.211,6.719-21.321,20.156-57.333c13.438-36.009,20.156-55.808,20.156-59.395
				h18.125c0,3.527,6.406,23.041,19.219,58.543S194.068,212.76,194.068,216.046z M164.146,166.559
				c-12.24-35.083-18.359-53.731-18.359-55.943h-0.859c0,1.853-6.329,20.501-18.985,55.943H164.146z"/>
			<g>
				<path style="fill:#FFFFFF;" d="M194.121,216.096l-16.537,0.031l-0.079,0l-0.002-0.082c-0.049-1.615-0.359-3.221-0.669-4.814
					c-0.326-1.593-0.697-3.177-1.088-4.755c-0.783-3.158-1.646-6.296-2.535-9.427c-1.78-6.261-3.685-12.486-5.619-18.702l0.149,0.11
					l-45.078,0.086l0.231-0.17c-1.903,6.218-3.783,12.445-5.519,18.709c-0.868,3.132-1.706,6.272-2.459,9.431
					c-0.382,1.578-0.724,3.164-1.037,4.753c-0.289,1.588-0.57,3.196-0.604,4.779l-0.006,0.299l-0.293,0l-15.781,0.023l-0.36,0
					l0.038-0.323c0.167-1.408,0.575-2.581,0.937-3.838c0.37-1.238,0.772-2.462,1.171-3.689c0.808-2.448,1.641-4.886,2.489-7.318
					c1.694-4.865,3.432-9.713,5.183-14.557c3.506-9.685,7.076-19.347,10.657-29.002c3.577-9.657,7.121-19.324,10.56-29.028
					c1.721-4.851,3.405-9.715,5.029-14.596c0.813-2.44,1.605-4.886,2.348-7.343c0.375-1.228,0.724-2.461,1.056-3.696
					c0.29-1.221,0.655-2.51,0.709-3.661l0.023-0.497l0.474,0l18.125-0.002l0.475,0l0.023,0.498c0.053,1.148,0.405,2.432,0.688,3.65
					c0.32,1.232,0.66,2.461,1.022,3.687c0.721,2.451,1.486,4.893,2.274,7.329c1.576,4.871,3.188,9.733,4.845,14.581
					c3.312,9.696,6.72,19.362,10.163,29.015c3.445,9.654,6.857,19.322,10.182,29.018c1.666,4.848,3.268,9.717,4.829,14.6
					c0.78,2.442,1.534,4.892,2.254,7.353c0.356,1.232,0.701,2.466,1.02,3.709c0.291,1.248,0.645,2.487,0.711,3.786L194.121,216.096z
					 M194.011,215.996c-0.088-1.25-0.447-2.476-0.751-3.697c-0.335-1.235-0.696-2.464-1.068-3.689
					c-0.753-2.448-1.539-4.886-2.352-7.315c-1.616-4.862-3.318-9.695-5-14.535c-3.391-9.671-6.868-19.311-10.378-28.941
					c-3.51-9.631-6.986-19.275-10.366-28.956c-1.684-4.842-3.356-9.69-4.934-14.571c-0.789-2.441-1.555-4.89-2.28-7.355
					c-0.364-1.232-0.707-2.473-1.03-3.721c-0.289-1.274-0.647-2.476-0.718-3.895l0.498,0.498l-18.125-0.002l0.496-0.496
					c-0.072,1.429-0.445,2.633-0.742,3.912c-0.337,1.251-0.69,2.496-1.067,3.731c-0.748,2.472-1.543,4.924-2.358,7.37
					c-1.638,4.888-3.346,9.748-5.085,14.597c-3.477,9.697-7.058,19.357-10.67,29.001c-3.619,9.642-7.208,19.293-10.743,28.965
					c-1.763,4.837-3.515,9.678-5.221,14.534c-0.854,2.428-1.694,4.86-2.507,7.3c-0.4,1.221-0.806,2.442-1.176,3.67
					c-0.361,1.209-0.774,2.498-0.919,3.648l-0.322-0.322l15.781,0.023l-0.299,0.299c0.041-1.673,0.333-3.282,0.629-4.889
					c0.32-1.601,0.668-3.194,1.056-4.776c0.764-3.167,1.613-6.31,2.491-9.444c1.758-6.267,3.65-12.493,5.58-18.706l0.053-0.171
					l0.178,0l45.078,0.086l0.115,0l0.034,0.109c1.911,6.224,3.793,12.459,5.549,18.73c0.877,3.136,1.729,6.279,2.501,9.443
					c0.386,1.582,0.751,3.17,1.072,4.767c0.304,1.6,0.61,3.206,0.654,4.849l-0.081-0.081L194.011,215.996z"/>
				<path style="fill:#FFFFFF;" d="M164.076,166.507c-3.272-9.231-6.523-18.47-9.721-27.727c-1.598-4.642-3.189-9.287-4.726-13.95
					c-0.773-2.33-1.526-4.668-2.262-7.012c-0.36-1.175-0.725-2.348-1.06-3.533c-0.326-1.202-0.696-2.328-0.844-3.668l0.325,0.325
					l-0.859,0.003l0.328-0.328c-0.066,0.713-0.237,1.279-0.391,1.89c-0.162,0.599-0.327,1.196-0.507,1.786
					c-0.346,1.186-0.72,2.36-1.09,3.537l-2.298,7.026l-4.747,13.996c-1.601,4.658-3.211,9.313-4.862,13.954l-4.957,13.919
					l-0.462-0.655l19.102,0.175l9.551,0.092L164.076,166.507z M164.216,166.607l-9.62,0.174l-9.551,0.092l-19.102,0.175
					l-0.697,0.006l0.235-0.662l9.889-27.841c1.642-4.642,3.28-9.285,4.871-13.944l2.348-6.999c0.377-1.17,0.76-2.339,1.113-3.514
					c0.345-1.154,0.739-2.397,0.897-3.48l0.048-0.329l0.28,0.001l0.859,0.003l0.291,0.001l0.034,0.324
					c0.117,1.103,0.479,2.338,0.793,3.5c0.324,1.179,0.679,2.353,1.029,3.527c0.716,2.345,1.45,4.686,2.205,7.02l4.594,13.988
					c3.111,9.311,6.275,18.604,9.461,27.891L164.216,166.607z"/>
			</g>
		</g>
		<g>
			<path style="fill:#FFFFFF;" d="M247.852,130.877l-3.516,14.255c-4.062-1.852-7.839-2.779-11.329-2.779
				c-9.792,0-16.146,5.35-19.062,16.048c0,27.494,0.156,46.708,0.469,57.646h-13.828c0.833-18.946,1.25-33.649,1.25-44.109
				c0-14.165-1.224-27.732-3.672-40.702l13.672-2.242c0.989,6.576,1.484,10.969,1.484,13.179h0.625
				c5.625-9.503,12.188-14.255,19.688-14.255C237.591,127.918,242.331,128.905,247.852,130.877z"/>
			<g>
				<path style="fill:#FFFFFF;" d="M247.911,130.845l-3.485,14.308l-0.026,0.108l-0.102-0.046c-2.942-1.331-6.061-2.328-9.275-2.642
					c-0.801-0.072-1.61-0.114-2.411-0.08c-0.811,0.022-1.621,0.055-2.414,0.168c-0.801,0.062-1.586,0.263-2.375,0.413
					c-0.773,0.222-1.554,0.419-2.293,0.738c-0.76,0.263-1.464,0.66-2.172,1.032l-1.021,0.638c-0.333,0.223-0.64,0.483-0.962,0.722
					c-0.328,0.232-0.617,0.512-0.909,0.786c-0.29,0.277-0.6,0.534-0.856,0.845l-0.802,0.898l-0.721,0.965
					c-0.475,0.646-0.889,1.339-1.289,2.034c-0.376,0.711-0.759,1.418-1.062,2.165c-0.343,0.728-0.603,1.492-0.879,2.248
					c-0.275,0.757-0.474,1.54-0.715,2.308l0.007-0.054l0.605,57.636l0.004,0.349l-0.344,0.001l-13.828,0.03l-0.386,0.001
					l0.016-0.387c0.579-14.16,1.09-28.33,1.137-42.493c0.008-7.08-0.228-14.148-0.833-21.197c-0.299-3.523-0.684-7.039-1.157-10.543
					c-0.236-1.752-0.498-3.5-0.777-5.246c-0.281-1.745-0.595-3.485-0.904-5.225l-0.089-0.498l0.492-0.078l13.683-2.171l0.422-0.067
					l0.061,0.419c0.317,2.191,0.619,4.385,0.883,6.586c0.252,2.204,0.514,4.402,0.537,6.655l-0.351-0.351l0.625,0.003l-0.299,0.171
					c0.452-0.708,0.874-1.435,1.351-2.128c0.47-0.697,0.942-1.393,1.457-2.059c0.489-0.685,1.041-1.323,1.572-1.976
					c0.568-0.622,1.108-1.271,1.723-1.849c0.587-0.606,1.227-1.157,1.865-1.71c0.665-0.521,1.324-1.05,2.041-1.501
					c0.347-0.242,0.706-0.464,1.08-0.664c0.37-0.205,0.73-0.429,1.119-0.597c0.757-0.381,1.548-0.684,2.348-0.963l1.221-0.351
					l1.245-0.251c0.837-0.122,1.679-0.212,2.525-0.215c0.846-0.029,1.68,0.022,2.521,0.095c0.836,0.078,1.67,0.179,2.496,0.322
					c3.309,0.557,6.524,1.532,9.66,2.681L247.911,130.845z M247.792,130.911c-3.141-1.077-6.352-1.977-9.63-2.46
					c-0.822-0.125-1.649-0.208-2.477-0.268c-0.823-0.055-1.661-0.088-2.483-0.043c-0.826,0.02-1.645,0.125-2.456,0.26l-1.207,0.259
					l-1.183,0.354c-0.774,0.28-1.54,0.581-2.273,0.96c-0.377,0.166-0.725,0.389-1.083,0.592c-0.362,0.198-0.71,0.418-1.045,0.658
					c-0.694,0.446-1.333,0.97-1.977,1.485c-0.618,0.548-1.239,1.093-1.808,1.693c-0.597,0.572-1.121,1.216-1.672,1.832
					c-0.515,0.648-1.051,1.279-1.526,1.959c-0.5,0.661-0.958,1.352-1.414,2.044c-0.463,0.687-0.873,1.411-1.312,2.114l-0.106,0.17
					l-0.193,0.001l-0.625,0.003l-0.344,0.002l-0.007-0.353c-0.044-2.172-0.326-4.375-0.6-6.56c-0.285-2.188-0.61-4.374-0.948-6.557
					l0.483,0.352l-13.66,2.312l0.403-0.576c1.331,6.98,2.261,14.034,2.864,21.112c0.598,7.076,0.864,14.189,0.799,21.285
					c-0.123,14.19-0.721,28.358-1.355,42.521l-0.37-0.386l13.828,0.03l-0.34,0.35l-0.333-57.656l0-0.031l0.007-0.023
					c0.248-0.776,0.453-1.566,0.736-2.331c0.284-0.764,0.551-1.535,0.904-2.272c0.311-0.755,0.704-1.472,1.09-2.191
					c0.411-0.704,0.835-1.406,1.323-2.061l0.74-0.978l0.823-0.911c0.262-0.315,0.58-0.576,0.877-0.857
					c0.3-0.278,0.596-0.561,0.932-0.797c0.329-0.243,0.644-0.506,0.985-0.731l1.044-0.645c0.724-0.376,1.444-0.775,2.219-1.039
					c0.755-0.32,1.549-0.515,2.335-0.736c0.802-0.149,1.596-0.346,2.413-0.405c0.814-0.11,1.624-0.137,2.433-0.155
					c0.819-0.029,1.632,0.018,2.444,0.095c3.247,0.336,6.381,1.36,9.328,2.713l-0.128,0.062L247.792,130.911z"/>
			</g>
		</g>
		<g>
			<path style="fill:#FFFFFF;" d="M306.309,202.33l-0.781,12.014c-4.219,2.748-9.871,4.124-16.953,4.124
				c-13.49,0-23.803-4.272-30.938-12.82c-7.136-8.547-10.703-18.856-10.703-30.93c0-12.79,3.75-23.787,11.25-32.992
				c7.5-9.204,17.422-13.807,29.766-13.807c6.197,0,11.25,0.717,15.156,2.152l-2.109,14.075c-5.469-2.331-11.016-3.497-16.641-3.497
				c-7.396,0-13.282,2.958-17.657,8.875s-6.562,13.329-6.562,22.234c0,9.683,2.604,17.751,7.812,24.206
				c5.208,6.455,12.578,9.683,22.11,9.683C293.965,205.647,299.381,204.542,306.309,202.33z"/>
			<g>
				<path style="fill:#FFFFFF;" d="M306.363,202.261l-0.756,12.088l-0.003,0.04l-0.034,0.022c-3.002,1.952-6.475,3.075-9.988,3.639
					c-3.523,0.579-7.113,0.624-10.664,0.428c-3.558-0.217-7.11-0.738-10.535-1.76c-3.413-1.033-6.732-2.469-9.696-4.478
					c-2.98-1.98-5.633-4.445-7.847-7.253c-2.248-2.774-4.159-5.829-5.683-9.062c-1.548-3.226-2.632-6.661-3.388-10.153
					c-0.732-3.501-1.067-7.077-1.108-10.649c-0.041-3.561,0.237-7.157,0.852-10.674c0.619-3.521,1.562-6.995,2.924-10.308
					c1.354-3.312,3.037-6.499,5.089-9.435c2.045-2.933,4.359-5.7,7.059-8.079c2.708-2.351,5.726-4.382,9.025-5.821
					c3.286-1.457,6.785-2.435,10.347-2.888c3.565-0.475,7.161-0.488,10.731-0.265c3.568,0.241,7.157,0.773,10.572,1.999l0.341,0.122
					l-0.053,0.363l-2.077,14.08l-0.09,0.612l-0.572-0.242c-4.894-2.071-10.147-3.303-15.455-3.428
					c-2.658-0.069-5.283,0.183-7.794,0.977c-2.511,0.757-4.828,2.08-6.829,3.769c-2.003,1.703-3.66,3.776-5.053,6.029
					c-1.379,2.25-2.47,4.68-3.258,7.206c-0.818,2.519-1.297,5.143-1.59,7.783c-0.264,2.642-0.312,5.32-0.167,7.976
					c0.298,5.302,1.517,10.598,3.962,15.326c1.2,2.373,2.721,4.571,4.466,6.587c1.758,1.964,3.822,3.701,6.13,5.007
					c2.302,1.324,4.82,2.264,7.423,2.825c2.6,0.579,5.275,0.818,7.946,0.805c2.663-0.051,5.321-0.507,7.936-1.075
					c2.619-0.575,5.204-1.301,7.769-2.091L306.363,202.261z M306.254,202.397c-2.53,0.826-5.083,1.593-7.676,2.21
					c-2.616,0.615-5.273,1.122-7.983,1.221c-2.697,0.063-5.409-0.129-8.057-0.704c-2.651-0.547-5.23-1.482-7.597-2.816
					c-2.378-1.321-4.497-3.068-6.334-5.085c-1.785-2.026-3.365-4.264-4.61-6.674c-2.541-4.809-3.831-10.204-4.182-15.602
					c-0.172-2.704-0.147-5.412,0.098-8.116c0.275-2.696,0.741-5.388,1.559-7.988c0.796-2.605,1.931-5.107,3.356-7.436
					c1.429-2.31,3.161-4.483,5.257-6.263c2.097-1.77,4.543-3.164,7.178-3.958c2.617-0.832,5.413-1.094,8.115-1.02
					c5.44,0.127,10.827,1.393,15.806,3.538l-0.662,0.37l2.142-14.07l0.287,0.485c-3.287-1.199-6.805-1.743-10.322-1.996
					c-3.524-0.237-7.077-0.241-10.569,0.211c-3.497,0.431-6.924,1.377-10.145,2.791c-3.233,1.396-6.193,3.372-8.859,5.669
					c-2.65,2.317-4.945,5.038-6.975,7.927c-2.035,2.889-3.706,6.026-5.055,9.29c-1.356,3.264-2.3,6.692-2.925,10.172
					c-0.621,3.488-0.91,7.014-0.883,10.566c0.027,3.539,0.346,7.08,1.058,10.547c0.736,3.457,1.793,6.859,3.308,10.058
					c1.493,3.209,3.365,6.236,5.583,9c2.178,2.79,4.785,5.236,7.723,7.209c2.921,2.001,6.201,3.44,9.581,4.481
					c3.392,1.03,6.923,1.566,10.458,1.799c3.543,0.213,7.11,0.185,10.617-0.373c3.496-0.544,6.948-1.642,9.935-3.564l-0.036,0.061
					L306.254,202.397z"/>
			</g>
		</g>
		<g>
			<path style="fill:#FFFFFF;" d="M359.342,203.674l-0.938,11.655c-4.115,1.732-7.996,2.6-11.641,2.6
				c-9.375,0-15.781-2.734-19.219-8.203s-5.156-15.255-5.156-29.361c0-9.145,0.051-21.068,0.156-35.771
				c-2.917,0-7.214,0.179-12.891,0.538l0.469-13c4.948,0.358,9.375,0.538,13.281,0.538c0-3.586,0.26-12.103,0.781-25.551
				l12.266-1.435c-0.886,12.551-1.328,21.547-1.328,26.985c5.104,0,12.604-0.298,22.5-0.896l-0.547,13.358
				c-9.375-0.359-16.902-0.538-22.579-0.538c-0.105,9.025-0.156,19.186-0.156,30.481c0,12.313,1.133,20.457,3.398,24.43
				c2.266,3.976,6.471,5.962,12.618,5.962C352.389,205.467,355.383,204.871,359.342,203.674z"/>
			<g>
				<path style="fill:#FFFFFF;" d="M359.398,203.606l-0.917,11.73l-0.004,0.046l-0.043,0.018c-3.824,1.617-7.948,2.706-12.137,2.625
					c-4.146-0.032-8.39-0.587-12.192-2.384c-1.898-0.882-3.626-2.14-5.045-3.686c-1.438-1.544-2.454-3.411-3.263-5.336
					c-1.588-3.879-2.337-8.022-2.867-12.147c-0.485-4.139-0.704-8.303-0.747-12.464c-0.033-2.082-0.004-4.16-0.007-6.238
					l0.013-6.235l0.066-24.942l0.289,0.29l-12.871,0.559l-0.342,0.015l0.012-0.337l0.447-13l0.012-0.345l0.345,0.024
					c4.415,0.31,8.837,0.518,13.257,0.514l-0.356,0.356l0.738-25.566l0.01-0.34l0.343-0.041l12.262-1.461l0.509-0.061l-0.035,0.514
					c-0.306,4.492-0.592,8.985-0.827,13.479c-0.228,4.493-0.437,8.992-0.442,13.477l-0.484-0.484
					c7.484-0.057,14.983-0.467,22.47-0.909l0.549-0.032l-0.022,0.549l-0.545,13.358l-0.02,0.49l-0.497-0.013l-22.559-0.573
					l0.463-0.457l-0.182,19.799l-0.091,9.9c-0.023,3.299,0.017,6.59,0.21,9.878c0.195,3.283,0.501,6.57,1.186,9.777
					c0.348,1.599,0.792,3.183,1.465,4.66c0.692,1.458,1.681,2.786,2.936,3.807c1.259,1.018,2.748,1.744,4.318,2.187
					c1.567,0.461,3.208,0.662,4.847,0.717c1.643,0.096,3.272-0.159,4.887-0.48c1.614-0.329,3.208-0.755,4.791-1.216L359.398,203.606
					z M359.287,203.741c-1.555,0.479-3.121,0.926-4.713,1.277c-1.61,0.348-3.269,0.635-4.931,0.564
					c-1.656-0.029-3.322-0.204-4.932-0.65c-1.611-0.427-3.161-1.148-4.488-2.187c-1.328-1.044-2.379-2.407-3.11-3.927
					c-0.709-1.524-1.173-3.134-1.539-4.753c-0.721-3.247-1.055-6.552-1.278-9.852c-0.221-3.301-0.288-6.614-0.292-9.915l0.01-9.903
					l0.021-19.807l0-0.468l0.462,0.01l22.598,0.503l-0.517,0.478l0.548-13.358l0.526,0.516c-7.499,0.431-14.998,0.871-22.53,0.884
					l-0.486,0.001l0.003-0.485c0.024-4.523,0.254-9.025,0.501-13.526c0.255-4.5,0.561-8.996,0.886-13.489l0.474,0.453l-12.268,1.408
					l0.353-0.381l-0.824,25.535l-0.012,0.357l-0.344-0.001c-4.444-0.011-8.88-0.236-13.305-0.561l0.357-0.32l-0.491,12.999
					l-0.331-0.322l12.91-0.517l0.291-0.012l-0.002,0.302l-0.152,24.941l-0.041,6.235c-0.006,2.078-0.045,4.158-0.021,6.232
					c0.024,4.151,0.223,8.302,0.688,12.424c0.509,4.106,1.237,8.23,2.789,12.069c0.788,1.899,1.784,3.75,3.182,5.261
					c1.385,1.522,3.074,2.766,4.942,3.644c1.861,0.894,3.861,1.486,5.896,1.859c2.04,0.373,4.107,0.531,6.185,0.555
					c4.15,0.1,8.255-0.962,12.073-2.557l-0.046,0.064L359.287,203.741z"/>
			</g>
		</g>
		<g>
			<path style="fill:#FFFFFF;" d="M381.517,216.046h-14.141c0.729-11.953,1.094-25.61,1.094-40.971
				c0-17.272-0.912-31.766-2.734-43.481l15.625-2.42c-0.625,12.492-0.938,27.792-0.938,45.901
				C380.423,189.42,380.787,203.078,381.517,216.046z M384.798,103.981c0,3.048-0.859,5.693-2.578,7.934s-4.141,3.362-7.266,3.362
				c-2.657,0-4.727-0.971-6.211-2.914c-1.484-1.941-2.227-4.288-2.227-7.038c0-2.988,0.885-5.588,2.656-7.8
				c1.77-2.21,4.219-3.317,7.344-3.317c2.551,0,4.57,0.972,6.055,2.914C384.056,99.066,384.798,101.352,384.798,103.981z"/>
			<g>
				<path style="fill:#FFFFFF;" d="M381.569,216.096l-14.193,0.056l-0.112,0l0.006-0.113c0.793-14.075,0.99-28.178,0.927-42.272
					c-0.036-7.046-0.234-14.091-0.661-21.12c-0.433-7.028-1.098-14.044-2.19-20.993l-0.061-0.388l0.39-0.062l15.616-2.478
					l0.546-0.087l-0.025,0.556c-0.324,7.229-0.524,14.464-0.674,21.701c-0.149,7.237-0.173,14.477-0.262,21.716
					c-0.07,7.241-0.053,14.477,0.072,21.717l0.254,10.857c0.092,3.619,0.213,7.238,0.365,10.856L381.569,216.096z M381.464,215.996
					c-0.252-3.595-0.475-7.193-0.668-10.793c-0.198-3.617-0.318-7.238-0.438-10.859c-0.228-7.241-0.349-14.489-0.382-21.733
					c-0.019-3.622-0.036-7.245,0.01-10.867l0.159-10.867c0.135-7.245,0.372-14.489,0.765-21.727l0.521,0.469l-15.634,2.363
					l0.329-0.45c1.055,6.989,1.68,14.03,2.072,21.076c0.387,7.047,0.542,14.104,0.537,21.157
					c-0.026,14.104-0.352,28.211-1.252,42.286l-0.106-0.112L381.464,215.996z"/>
				<path style="fill:#FFFFFF;" d="M384.848,103.982c0,0-0.006,0.245-0.017,0.703c-0.018,0.46-0.07,1.134-0.224,1.979
					c-0.163,0.841-0.43,1.857-0.912,2.955c-0.495,1.088-1.186,2.276-2.223,3.35c-1.034,1.074-2.496,1.928-4.179,2.304
					c-1.67,0.361-3.542,0.413-5.36-0.198c-0.904-0.304-1.757-0.816-2.49-1.472c-0.734-0.671-1.327-1.462-1.822-2.323
					c-0.997-1.728-1.468-3.76-1.503-5.762c-0.055-2.002,0.304-4.051,1.161-5.867c0.855-1.8,2.091-3.44,3.749-4.494
					c1.658-1.043,3.566-1.45,5.3-1.419c1.75-0.012,3.461,0.483,4.689,1.429c1.254,0.922,2.02,2.108,2.579,3.178
					c0.544,1.086,0.846,2.102,1.018,2.946c0.168,0.847,0.211,1.525,0.226,1.984C384.857,103.736,384.848,103.982,384.848,103.982z
					 M384.748,103.981c0,0-0.001-0.243-0.034-0.698c-0.032-0.454-0.101-1.122-0.298-1.947c-0.191-0.824-0.537-1.806-1.152-2.805
					c-0.609-0.985-1.442-2.065-2.633-2.797c-1.182-0.743-2.682-1.123-4.289-1.046c-1.61,0.063-3.309,0.401-4.755,1.348
					c-1.466,0.899-2.625,2.384-3.458,4.022c-0.83,1.653-1.215,3.548-1.21,5.45c-0.003,1.9,0.403,3.803,1.303,5.436
					c0.885,1.658,2.226,2.991,3.907,3.585c1.657,0.606,3.465,0.573,5.07,0.295c1.616-0.3,3.037-1.056,4.076-2.058
					c1.044-0.999,1.768-2.151,2.286-3.21c0.52-1.066,0.793-2.075,0.947-2.911c0.152-0.838,0.204-1.509,0.222-1.963
					C384.742,104.225,384.748,103.981,384.748,103.981z"/>
			</g>
		</g>
		<g>
			<path style="fill:#FFFFFF;" d="M463.044,256.838h-13.906c0.469-16.377,0.703-32.575,0.703-48.591h-0.859
				c-5.364,6.813-13.542,10.221-24.531,10.221c-9.844,0-17.683-4.169-23.516-12.507c-5.834-8.338-8.75-18.244-8.75-29.72
				c0-12.91,3.177-24.22,9.531-33.933c6.354-9.712,15.338-14.568,26.953-14.568c9.479,0,16.433,1.972,20.859,5.917h0.625
				l3.203-2.779l9.688-0.986c-0.729,20.082-1.094,40.225-1.094,60.426C461.951,214.463,462.315,236.635,463.044,256.838z
				 M449.841,196.413c0-19.724-0.234-36.937-0.703-51.64c-4.844-4.124-10.651-6.186-17.422-6.186c-8.594,0-15.014,3.467-19.258,10.4
				c-4.245,6.934-6.367,15.271-6.367,25.013c0,8.846,2.031,16.437,6.094,22.771c4.062,6.336,9.766,9.503,17.109,9.503
				C438.669,206.274,445.518,202.988,449.841,196.413z"/>
			<g>
				<path style="fill:#FFFFFF;" d="M463.096,256.888l-13.958,0.029l-0.08,0l0.001-0.082l0.601-48.589l0.181,0.181l-0.859,0.002
					l0.143-0.07c-2.298,2.912-5.233,5.326-8.56,6.98c-3.33,1.652-6.968,2.609-10.643,3.042c-3.681,0.414-7.41,0.495-11.081-0.155
					c-3.653-0.661-7.198-2.046-10.262-4.165c-1.532-1.054-2.964-2.253-4.269-3.577c-1.292-1.336-2.476-2.771-3.554-4.283
					c-2.124-3.028-3.913-6.316-5.271-9.762c-1.358-3.448-2.331-7.05-2.898-10.71c-0.593-3.658-0.792-7.373-0.718-11.068
					c0.12-7.394,1.371-14.811,4.019-21.744c1.312-3.468,2.968-6.806,4.947-9.944c1.935-3.149,4.34-6.083,7.17-8.509
					c2.848-2.41,6.149-4.311,9.703-5.473c3.542-1.219,7.291-1.667,11.017-1.706c3.688,0.011,7.435,0.277,11.071,1.13
					c3.622,0.851,7.2,2.351,10.06,4.871l-0.329-0.125l0.625,0l-0.324,0.121l3.203-2.78l0.119-0.103l0.156-0.016l9.687-0.987
					l0.567-0.058l-0.021,0.57c-0.383,10.571-0.662,21.146-0.844,31.722c-0.221,10.576-0.341,21.154-0.364,31.733
					c-0.026,10.579,0.018,21.159,0.152,31.738c0.15,10.578,0.296,21.158,0.61,31.735L463.096,256.888z M462.993,256.788
					c-0.447-10.555-0.828-21.114-1.028-31.678c-0.213-10.581-0.337-21.163-0.391-31.746c-0.058-10.583-0.018-21.168,0.124-31.751
					c0.181-10.583,0.465-21.164,0.85-31.741l0.547,0.512l-9.687,0.985l0.274-0.119l-3.203,2.779l-0.14,0.121l-0.185,0l-0.625,0
					l-0.187,0l-0.142-0.126c-2.69-2.374-6.1-3.845-9.622-4.684c-3.542-0.844-7.192-1.122-10.863-1.148
					c-3.624,0.024-7.294,0.448-10.733,1.618c-3.457,1.116-6.663,2.945-9.445,5.279c-2.775,2.365-5.108,5.18-7.039,8.299
					c-1.961,3.089-3.605,6.376-4.911,9.794c-2.635,6.832-3.898,14.165-4.04,21.488c-0.084,3.668,0.101,7.339,0.676,10.958
					c0.549,3.62,1.499,7.179,2.829,10.587c1.334,3.414,3.077,6.645,5.174,9.655c1.057,1.492,2.218,2.907,3.482,4.223
					c1.277,1.304,2.678,2.483,4.176,3.521c2.995,2.086,6.461,3.452,10.047,4.114c3.593,0.651,7.307,0.591,10.938,0.195
					c3.636-0.413,7.228-1.344,10.513-2.956c3.282-1.615,6.178-3.975,8.456-6.837l0.056-0.07l0.088,0l0.859,0.002l0.184,0
					l-0.003,0.181l-0.805,48.593l-0.079-0.081L462.993,256.788z"/>
				<path style="fill:#FFFFFF;" d="M449.791,196.397l-0.421-25.802l-0.497-25.817l0.093,0.197c-2.149-1.813-4.582-3.284-7.2-4.294
					c-2.615-1.021-5.403-1.569-8.207-1.716c-1.392-0.074-2.817-0.068-4.212,0.058c-1.39,0.105-2.782,0.339-4.131,0.694
					c-1.356,0.338-2.669,0.835-3.916,1.453c-1.254,0.607-2.435,1.362-3.513,2.244c-2.18,1.739-3.949,3.957-5.34,6.385
					c-1.427,2.426-2.549,5.012-3.441,7.677c-1.754,5.346-2.429,11.012-2.418,16.628c0.021,2.835,0.212,5.625,0.704,8.398
					c0.472,2.767,1.226,5.483,2.269,8.081c1.059,2.59,2.374,5.082,4.008,7.359c1.62,2.241,3.689,4.195,6.093,5.577
					c2.412,1.375,5.147,2.177,7.941,2.393c2.788,0.197,5.652,0.042,8.41-0.485c1.384-0.273,2.74-0.668,4.064-1.158
					c1.308-0.529,2.571-1.168,3.762-1.927c1.176-0.782,2.275-1.678,3.282-2.671C448.11,198.666,448.992,197.561,449.791,196.397z
					 M449.883,196.44c-0.789,1.184-1.665,2.31-2.65,3.341c-1.002,1.014-2.099,1.932-3.277,2.737c-1.194,0.783-2.463,1.444-3.779,2
					c-1.326,0.529-2.691,0.964-4.086,1.276c-2.802,0.606-5.654,0.834-8.529,0.706c-2.869-0.148-5.733-0.901-8.293-2.276
					c-2.546-1.41-4.724-3.409-6.462-5.739c-1.721-2.305-3.099-4.861-4.172-7.529c-1.071-2.67-1.842-5.456-2.323-8.285
					c-0.501-2.819-0.696-5.714-0.715-8.553c-0.002-5.726,0.756-11.471,2.582-16.917c0.93-2.709,2.103-5.349,3.576-7.807
					c1.442-2.48,3.291-4.774,5.566-6.563c1.125-0.908,2.357-1.685,3.662-2.307c1.298-0.633,2.66-1.138,4.061-1.478
					c1.397-0.358,2.818-0.587,4.259-0.687c1.432-0.12,2.855-0.116,4.295-0.032c2.861,0.168,5.711,0.747,8.382,1.809
					c2.674,1.051,5.153,2.573,7.331,4.434l0.092,0.079l0.001,0.119l0.206,25.822l0.282,25.837L449.883,196.44z"/>
			</g>
		</g>
	</g>
</g>
</svg>
